<svg xmlns="http://www.w3.org/2000/svg" viewBox="0 0 65.1 65"><defs><style>.cls-1{fill:#424142;}.cls-2{fill:#fff;}.cls-3{fill:#ff9f1b;}</style></defs><title>ico3</title><g id="Capa_2" data-name="Capa 2"><g id="MENU"><g id="_Grupo_" data-name="&lt;Grupo&gt;"><g id="_Grupo_2" data-name="&lt;Grupo&gt;"><path id="_Trazado_" data-name="&lt;Trazado&gt;" class="cls-1" d="M24.27,20.52c0-5-5.18-8.93-11.58-9S1,15.44,1,20.42s5.18,8.93,11.58,9v4.88l5.08-5.69C21.53,27.11,24.27,24.07,24.27,20.52Z"/><path id="_Trazado_2" data-name="&lt;Trazado&gt;" class="cls-1" d="M44.18,10.06c0-5-5.18-9-11.58-9S20.92,5,20.92,9.86s5.18,8.94,11.58,9v4.88l5.08-5.69C41.43,16.65,44.08,13.61,44.18,10.06Z"/><path id="_Trazado_3" data-name="&lt;Trazado&gt;" class="cls-1" d="M64,18.79c0-5-5.18-8.94-11.58-9s-11.68,4-11.68,8.84,5.18,8.93,11.58,9V32.5l5.08-5.69C61.24,25.39,64,22.35,64,18.79Z"/></g><g id="_Grupo_3" data-name="&lt;Grupo&gt;"><path id="_Trazado_compuesto_" data-name="&lt;Trazado compuesto&gt;" class="cls-2" d="M61.24,11.68A14.38,14.38,0,0,0,52.4,8.84H52.3a14.59,14.59,0,0,0-7.11,1.73C44.69-.2,32.6,0,32.6,0c-6.5,0-12.39,3.76-12.69,9.86a11.15,11.15,0,0,0,.4,2.64c-3.14-2-7.72-2-7.72-2C5.68,10.56,0,14.93,0,20.41a8.8,8.8,0,0,0,3.76,7.11,14.59,14.59,0,0,0,7.82,2.85V37l6.7-7.52c4.27-1.62,7.1-5.08,7.1-8.84A7.59,7.59,0,0,0,24.87,18a15.76,15.76,0,0,0,6.5,2v6.61l6.7-7.52c.61-.2,1.12-.51,1.62-.71-.61.61,1,10.36,11.58,10.46v6.61L58,27.93c4.27-1.62,7.1-5.08,7.1-8.84A9.3,9.3,0,0,0,61.24,11.68Zm-44.18,16-3.45,3.86V28.44A13.76,13.76,0,0,1,5,26,7.33,7.33,0,0,1,2,20.42c0-4.37,4.77-7.82,10.66-7.82s10.57,3.64,10.57,8C22.64,26.11,17.06,27.73,17.06,27.73ZM36.87,17.16,33.41,21V17.88c-.11.4-6.7-.31-8.64-2.43C23.15,13.62,21.84,12,21.84,10c0-4.37,4.77-7.82,10.66-7.82s10.57,3.65,10.57,8C42.86,13.71,40.42,15.85,36.87,17.16Zm19.9,8.73-3.45,3.87V26.62s-10.66.61-11.57-8c.6-5.48,5.79-7.72,10.66-7.82,6.1.11,10.26,3.56,10.57,8C62.77,21.73,61,24.27,56.77,25.89Z"/><rect id="_Trazado_4" data-name="&lt;Trazado&gt;" class="cls-2" x="47.94" y="17.06" width="2.03" height="2.03"/><rect id="_Trazado_5" data-name="&lt;Trazado&gt;" class="cls-2" x="54.64" y="17.06" width="2.03" height="2.03"/><rect id="_Trazado_6" data-name="&lt;Trazado&gt;" class="cls-2" x="28.13" y="8.33" width="2.03" height="2.03"/><rect id="_Trazado_7" data-name="&lt;Trazado&gt;" class="cls-2" x="34.84" y="8.33" width="2.03" height="2.03"/><rect id="_Trazado_8" data-name="&lt;Trazado&gt;" class="cls-2" x="8.33" y="18.79" width="2.03" height="2.03"/><rect id="_Trazado_9" data-name="&lt;Trazado&gt;" class="cls-2" x="15.03" y="18.79" width="2.03" height="2.03"/></g><path id="_Trazado_10" data-name="&lt;Trazado&gt;" class="cls-3" d="M64,64V61.34a8.84,8.84,0,0,0-8.84-8.84h0a8.84,8.84,0,0,0-8.84,8.84V64Z"/><g id="_Grupo_4" data-name="&lt;Grupo&gt;"><circle id="_Trazado_11" data-name="&lt;Trazado&gt;" class="cls-1" cx="55.14" cy="43.47" r="4.67"/><circle id="_Trazado_12" data-name="&lt;Trazado&gt;" class="cls-1" cx="32.5" cy="43.47" r="4.67"/></g><path id="_Trazado_13" data-name="&lt;Trazado&gt;" class="cls-3" d="M41.34,64V61.34A8.84,8.84,0,0,0,32.5,52.5h0a8.84,8.84,0,0,0-8.84,8.84V64Z"/><circle id="_Trazado_14" data-name="&lt;Trazado&gt;" class="cls-1" cx="9.86" cy="43.47" r="4.67"/><path id="_Trazado_15" data-name="&lt;Trazado&gt;" class="cls-3" d="M18.68,64V61.34A8.84,8.84,0,0,0,9.85,52.5h0A8.84,8.84,0,0,0,1,61.34V64Z"/><g id="_Grupo_5" data-name="&lt;Grupo&gt;"><path id="_Trazado_compuesto_2" data-name="&lt;Trazado compuesto&gt;" class="cls-2" d="M55.14,51.49a9.87,9.87,0,0,0-9.86,9.86V65H65V61.35A9.86,9.86,0,0,0,55.14,51.49ZM63,63H47.33V61.35a7.82,7.82,0,0,1,15.63,0V63Z"/><path id="_Trazado_compuesto_3" data-name="&lt;Trazado compuesto&gt;" class="cls-2" d="M55.14,49.26a5.68,5.68,0,1,0-5.68-5.68A5.67,5.67,0,0,0,55.14,49.26Zm0-9.44a3.65,3.65,0,1,1-3.65,3.65A3.58,3.58,0,0,1,55.14,39.82Z"/><path id="_Trazado_compuesto_4" data-name="&lt;Trazado compuesto&gt;" class="cls-2" d="M32.5,49.26a5.68,5.68,0,1,0-5.69-5.68A5.75,5.75,0,0,0,32.5,49.26Zm0-9.44a3.65,3.65,0,1,1-3.65,3.65A3.64,3.64,0,0,1,32.5,39.82Z"/><path id="_Trazado_compuesto_5" data-name="&lt;Trazado compuesto&gt;" class="cls-2" d="M32.5,51.49a9.87,9.87,0,0,0-9.86,9.86V65h19.7V61.35A9.79,9.79,0,0,0,32.5,51.49ZM40.32,63H24.68V61.35a7.82,7.82,0,0,1,15.63,0Z"/><path id="_Trazado_compuesto_6" data-name="&lt;Trazado compuesto&gt;" class="cls-2" d="M9.86,49.26a5.68,5.68,0,1,0-5.69-5.68A5.75,5.75,0,0,0,9.86,49.26Zm0-9.44A3.65,3.65,0,1,1,6.2,43.47,3.64,3.64,0,0,1,9.86,39.82Z"/><path id="_Trazado_compuesto_7" data-name="&lt;Trazado compuesto&gt;" class="cls-2" d="M9.86,51.49A9.86,9.86,0,0,0,0,61.35V65H19.7V61.35A9.79,9.79,0,0,0,9.86,51.49ZM17.67,63H2V61.35a7.82,7.82,0,0,1,15.63,0V63Z"/></g></g></g></g></svg>