<svg xmlns="http://www.w3.org/2000/svg" viewBox="0 0 352.2 208"><defs><style>.cls-1{fill:#fff;}.cls-2{fill:#424142;}</style></defs><title>portada_titulo</title><g id="Capa_2" data-name="Capa 2"><g id="PORTADA"><path class="cls-1" d="M20.83,167.65V143.13h13.8v2.1H23v9.11h9.38v2.1H23v9.09H34.62v2.1Z"/><path class="cls-1" d="M56.36,167.65,46.14,149.8l-.21-1.06v18.91H43.73V143.13h1.15L55.1,161l.22,1V143.13h2.21v24.51Z"/><path class="cls-1" d="M94,164.31a6,6,0,0,1-3.2,3.21,5.87,5.87,0,0,1-2.34.47H86.66a5.93,5.93,0,0,1-2.35-.47,6,6,0,0,1-3.21-3.21,5.88,5.88,0,0,1-.47-2.34V148.81a5.88,5.88,0,0,1,.47-2.34,6,6,0,0,1,3.21-3.21,5.93,5.93,0,0,1,2.35-.47h1.74a5.87,5.87,0,0,1,2.34.47,6,6,0,0,1,3.2,3.21,5.84,5.84,0,0,1,.47,2.34v1l-2.21.34v-1.33a3.8,3.8,0,0,0-.31-1.53,3.94,3.94,0,0,0-2.08-2.08,3.79,3.79,0,0,0-1.53-.31H86.77a3.81,3.81,0,0,0-1.53.31A4.1,4.1,0,0,0,84,146a3.89,3.89,0,0,0-.84,1.24,3.8,3.8,0,0,0-.31,1.53V162a3.8,3.8,0,0,0,.31,1.53,4,4,0,0,0,2.09,2.09,3.81,3.81,0,0,0,1.53.31H88.3a3.79,3.79,0,0,0,1.53-.31,3.9,3.9,0,0,0,1.24-.85,4.11,4.11,0,0,0,.84-1.25,3.8,3.8,0,0,0,.31-1.53v-1.33l2.21.36v1A5.84,5.84,0,0,1,94,164.31Z"/><path class="cls-1" d="M117.2,164.31a6,6,0,0,1-3.2,3.21,5.87,5.87,0,0,1-2.34.47h-1.74a5.93,5.93,0,0,1-2.35-.47,6,6,0,0,1-3.21-3.21,5.88,5.88,0,0,1-.47-2.34V148.81a5.88,5.88,0,0,1,.47-2.34,6,6,0,0,1,3.21-3.21,5.93,5.93,0,0,1,2.35-.47h1.74a5.87,5.87,0,0,1,2.34.47,6,6,0,0,1,3.2,3.21,5.84,5.84,0,0,1,.47,2.34V162A5.84,5.84,0,0,1,117.2,164.31Zm-1.73-15.5a3.8,3.8,0,0,0-.31-1.53,3.94,3.94,0,0,0-2.08-2.08,3.79,3.79,0,0,0-1.53-.31H110a3.81,3.81,0,0,0-1.53.31,4.1,4.1,0,0,0-1.25.84,3.89,3.89,0,0,0-.84,1.24,3.8,3.8,0,0,0-.31,1.53V162a3.8,3.8,0,0,0,.31,1.53,4,4,0,0,0,2.09,2.09,3.81,3.81,0,0,0,1.53.31h1.54a3.79,3.79,0,0,0,1.53-.31,3.9,3.9,0,0,0,1.24-.85,4.11,4.11,0,0,0,.84-1.25,3.8,3.8,0,0,0,.31-1.53Z"/><path class="cls-1" d="M140.47,167.65,130.24,149.8l-.21-1.06v18.91h-2.21V143.13H129L139.2,161l.22,1V143.13h2.21v24.51Z"/><path class="cls-1" d="M158.09,145.24v22.41h-2.21V145.24H150v-2.1h13.9v2.1Z"/><path class="cls-1" d="M183.86,167.65l-6.65-10.46h-3v10.46H172V143.13h7.78a5.85,5.85,0,0,1,2.34.47,6,6,0,0,1,3.21,3.21,5.94,5.94,0,0,1,.47,2.35v2a5.94,5.94,0,0,1-.47,2.35,6,6,0,0,1-3.21,3.21,5.85,5.85,0,0,1-2.34.47l6.65,10.46Zm-.29-18.48a3.8,3.8,0,0,0-.31-1.53,4.06,4.06,0,0,0-.84-1.25,3.89,3.89,0,0,0-1.24-.85,3.81,3.81,0,0,0-1.53-.31h-5.47v9.85h5.47a3.81,3.81,0,0,0,1.53-.31,3.89,3.89,0,0,0,1.24-.85,4.06,4.06,0,0,0,.84-1.25,3.8,3.8,0,0,0,.31-1.53Z"/><path class="cls-1" d="M204.71,161.94h-7.76l-1.61,5.71h-2.29l7.18-24.51h1.16l7.21,24.51h-2.27Zm-7.16-2.1h6.58l-3.23-11.3-.07-.91-.07.91Z"/><path class="cls-1" d="M221.56,145.24v22.41h-2.21V145.24h-5.85v-2.1h13.9v2.1Z"/><path class="cls-1" d="M244,161.94h-7.76l-1.61,5.71h-2.29l7.18-24.51h1.16l7.21,24.51h-2.27Zm-7.16-2.1h6.58l-3.23-11.3-.07-.91-.07.91Z"/><path class="cls-1" d="M268.88,164.31a6,6,0,0,1-3.21,3.21,5.85,5.85,0,0,1-2.34.47h-1.74a5.92,5.92,0,0,1-2.35-.47,6,6,0,0,1-3.21-3.21,5.84,5.84,0,0,1-.47-2.34V148.81a5.84,5.84,0,0,1,.47-2.34,6,6,0,0,1,3.21-3.21,5.92,5.92,0,0,1,2.35-.47h1.74a5.85,5.85,0,0,1,2.34.47,6,6,0,0,1,3.21,3.21,5.88,5.88,0,0,1,.47,2.34v1l-2.21.34v-1.33a3.8,3.8,0,0,0-.31-1.53,3.94,3.94,0,0,0-2.08-2.08,3.81,3.81,0,0,0-1.53-.31h-1.54a3.79,3.79,0,0,0-1.53.31,4.07,4.07,0,0,0-1.25.84,3.9,3.9,0,0,0-.85,1.24,3.8,3.8,0,0,0-.31,1.53V162a3.8,3.8,0,0,0,.31,1.53,4,4,0,0,0,2.1,2.09,3.79,3.79,0,0,0,1.53.31h1.54a3.81,3.81,0,0,0,1.53-.31,3.89,3.89,0,0,0,1.24-.85,4.06,4.06,0,0,0,.84-1.25,3.8,3.8,0,0,0,.31-1.53v-1.33l2.21.36v1A5.88,5.88,0,0,1,268.88,164.31Z"/><path class="cls-1" d="M279.16,167.65V143.13h2.21v24.51Z"/><path class="cls-1" d="M304.84,164.31a6,6,0,0,1-3.21,3.21,5.85,5.85,0,0,1-2.34.47h-1.74a5.92,5.92,0,0,1-2.35-.47,6,6,0,0,1-3.21-3.21,5.84,5.84,0,0,1-.47-2.34V148.81a5.84,5.84,0,0,1,.47-2.34,6,6,0,0,1,3.21-3.21,5.92,5.92,0,0,1,2.35-.47h1.74a5.85,5.85,0,0,1,2.34.47,6,6,0,0,1,3.21,3.21,5.88,5.88,0,0,1,.47,2.34V162A5.88,5.88,0,0,1,304.84,164.31Zm-1.74-15.5a3.8,3.8,0,0,0-.31-1.53,3.94,3.94,0,0,0-2.08-2.08,3.81,3.81,0,0,0-1.53-.31h-1.54a3.79,3.79,0,0,0-1.53.31,4.07,4.07,0,0,0-1.25.84,3.9,3.9,0,0,0-.85,1.24,3.8,3.8,0,0,0-.31,1.53V162a3.8,3.8,0,0,0,.31,1.53,4,4,0,0,0,2.1,2.09,3.79,3.79,0,0,0,1.53.31h1.54a3.81,3.81,0,0,0,1.53-.31,3.89,3.89,0,0,0,1.24-.85,4.06,4.06,0,0,0,.84-1.25,3.8,3.8,0,0,0,.31-1.53Zm-5.21-8.46h-1.57l2.8-4.21h3.5Z"/><path class="cls-1" d="M328.1,167.65,317.88,149.8l-.21-1.06v18.91h-2.21V143.13h1.15L326.84,161l.22,1V143.13h2.21v24.51Z"/><path class="cls-1" d="M24.79,194.56a6,6,0,0,1-3.21,3.21,5.92,5.92,0,0,1-2.35.47H13.67v9.42H11.47V183.14h7.76a5.92,5.92,0,0,1,2.35.47,6,6,0,0,1,3.21,3.21,5.9,5.9,0,0,1,.47,2.35v3A5.84,5.84,0,0,1,24.79,194.56Zm-1.73-5.38a3.8,3.8,0,0,0-.31-1.53,4,4,0,0,0-2.1-2.09,3.79,3.79,0,0,0-1.53-.31H13.67v10.89h5.45a3.79,3.79,0,0,0,1.53-.31A4.07,4.07,0,0,0,21.9,195a3.9,3.9,0,0,0,.85-1.24,3.8,3.8,0,0,0,.31-1.53Z"/><path class="cls-1" d="M45.89,207.66,39.24,197.2h-3v10.46H34V183.14h7.78a5.87,5.87,0,0,1,2.34.47A6.09,6.09,0,0,1,46,184.91a6,6,0,0,1,1.29,1.92,5.9,5.9,0,0,1,.47,2.35v2a5.9,5.9,0,0,1-.47,2.35A6,6,0,0,1,46,195.44a6.09,6.09,0,0,1-1.91,1.29,5.87,5.87,0,0,1-2.34.47l6.65,10.46Zm-.29-18.48a3.8,3.8,0,0,0-.31-1.53,4.11,4.11,0,0,0-.84-1.25,3.9,3.9,0,0,0-1.24-.85,3.79,3.79,0,0,0-1.53-.31H36.21v9.85h5.47a3.79,3.79,0,0,0,1.53-.31,3.9,3.9,0,0,0,1.24-.85,4.11,4.11,0,0,0,.84-1.25,3.8,3.8,0,0,0,.31-1.53Z"/><path class="cls-1" d="M57.54,207.66V183.14h2.21v24.51Z"/><path class="cls-1" d="M75.5,202.27l.07.91.07-.91,5.44-19.13h2.27l-7.21,24.51H75L67.8,183.14h2.29Z"/><path class="cls-1" d="M99.89,201.95H92.13l-1.61,5.71H88.24l7.18-24.51h1.16l7.21,24.51h-2.27Zm-7.16-2.1h6.58l-3.23-11.3-.07-.91-.07.91Z"/><path class="cls-1" d="M125.16,204a6,6,0,0,1-3.21,3.21,5.92,5.92,0,0,1-2.35.47h-7.76V183.14h7.76a5.92,5.92,0,0,1,2.35.47,6,6,0,0,1,3.21,3.21,5.9,5.9,0,0,1,.47,2.35v12.46A5.84,5.84,0,0,1,125.16,204Zm-1.73-14.8a3.8,3.8,0,0,0-.31-1.53,4,4,0,0,0-2.1-2.09,3.79,3.79,0,0,0-1.53-.31H114v20.31h5.45a3.79,3.79,0,0,0,1.53-.31,4.07,4.07,0,0,0,1.25-.84,3.9,3.9,0,0,0,.85-1.24,3.8,3.8,0,0,0,.31-1.53Z"/><path class="cls-1" d="M145,201.95h-7.76l-1.61,5.71h-2.29l7.18-24.51h1.16l7.21,24.51H146.6Zm-7.16-2.1h6.58l-3.23-11.3-.07-.91-.07.91Z"/><path class="cls-1" d="M176.32,195.93v11.73h-2.21V196l-6.34-12.82h2.38l5,10.19,5-10.19h2.38Z"/><path class="cls-1" d="M204,207.66V183.14h13.8v2.1H206.18v9.11h9.38v2.1h-9.38v9.09h11.59v2.1Z"/><path class="cls-1" d="M240.31,202a5.55,5.55,0,0,1-.5,2.34,6.29,6.29,0,0,1-3.32,3.21,6.05,6.05,0,0,1-2.37.47h-1.76a6,6,0,0,1-2.37-.47,6.29,6.29,0,0,1-3.32-3.21,5.52,5.52,0,0,1-.51-2.34v-1l2.21-.36V202a3.55,3.55,0,0,0,.33,1.53,4.15,4.15,0,0,0,.9,1.25,4.21,4.21,0,0,0,1.31.85,4,4,0,0,0,1.56.31H234a4,4,0,0,0,1.56-.31,4.22,4.22,0,0,0,1.3-.85,4.16,4.16,0,0,0,.9-1.25,3.55,3.55,0,0,0,.33-1.53v-.74a4.05,4.05,0,0,0-.5-2.1,4.68,4.68,0,0,0-1.32-1.43,8.6,8.6,0,0,0-1.85-1l-2.13-.82q-1.09-.41-2.13-.91a7.69,7.69,0,0,1-1.86-1.24,5.58,5.58,0,0,1-1.32-1.82,6.33,6.33,0,0,1-.5-2.65v-.46a5.84,5.84,0,0,1,.47-2.34,6,6,0,0,1,3.21-3.21,5.92,5.92,0,0,1,2.35-.47h1.57a5.85,5.85,0,0,1,2.34.47,6,6,0,0,1,3.21,3.21,5.88,5.88,0,0,1,.47,2.34v.63l-2.21.36v-1a3.8,3.8,0,0,0-.31-1.53,3.94,3.94,0,0,0-2.08-2.08,3.81,3.81,0,0,0-1.53-.31h-1.37a3.79,3.79,0,0,0-1.53.31,4.07,4.07,0,0,0-1.25.84,3.9,3.9,0,0,0-.85,1.24,3.8,3.8,0,0,0-.31,1.53v.46a3.72,3.72,0,0,0,.5,2,4.67,4.67,0,0,0,1.32,1.38,9.34,9.34,0,0,0,1.86,1l2.13.85q1.1.44,2.13,1a8.06,8.06,0,0,1,1.85,1.28,5.69,5.69,0,0,1,1.32,1.85,6.41,6.41,0,0,1,.5,2.67Z"/><path class="cls-1" d="M255.89,185.25v22.41h-2.21V185.25h-5.85v-2.1h13.9v2.1Z"/><path class="cls-1" d="M278.3,201.95h-7.76l-1.61,5.71h-2.29l7.18-24.51H275l7.21,24.51h-2.27Zm-7.16-2.1h6.58l-3.23-11.3-.07-.91-.07.91Z"/><path class="cls-1" d="M295.15,185.25v22.41h-2.21V185.25H287.1v-2.1H301v2.1Z"/><path class="cls-1" d="M317.56,201.95H309.8l-1.61,5.71H305.9l7.18-24.51h1.16l7.21,24.51h-2.27Zm-7.16-2.1H317l-3.23-11.3-.07-.91-.07.91Z"/><path class="cls-1" d="M329.14,207.66V183.14h2.21v22.41h9.38v2.1Z"/><path class="cls-2" d="M5.64,122H0V65.62H8l13,40.73V65.62h5.56V122H20L5.64,76.41Z"/><path class="cls-2" d="M32.52,79.23c0-8.61,4.27-14.17,12.88-14.17s13,5.55,13,14.17v29.14c0,8.53-4.27,14.17-13,14.17s-12.88-5.63-12.88-14.17Zm6.2,29.46c0,5.15,2.17,8.13,6.68,8.13s6.68-3,6.68-8.13V78.91c0-5.07-2.09-8.13-6.68-8.13s-6.68,3.06-6.68,8.13Z"/><path class="cls-2" d="M76.88,65.62c8.85,0,12.56,4.51,12.56,12.88v4.59c0,6.2-2.17,10.06-7,11.59,5.15,1.53,7.08,5.71,7.08,11.75v8.78c0,2.49.08,4.83,1.13,6.76H84.28c-.72-1.61-1-3.06-1-6.84v-8.85c0-6.36-3-8.37-8.21-8.37H70.6V122H64.32V65.62ZM75.27,92.19c5,0,8-1.61,8-7.73V79.07c0-5.07-1.85-7.73-6.52-7.73H70.6V92.19Z"/><path class="cls-2" d="M116.81,121.89h-6l-9.34-44.84V122H96V65.62h8.78l9.26,45,8.94-45h8.77V122h-6V76.65Z"/><path class="cls-2" d="M144.5,110.62,142.33,122h-5.8l10.79-56.35h9.1L167.2,122h-6.28l-2.17-11.35Zm.81-5.39h12.56l-6.36-32.52Z"/><path class="cls-2" d="M180.33,122V71.34H169.94V65.62h27v5.72H186.61V122Z"/><path class="cls-2" d="M207.62,65.62V122h-6.28V65.62Z"/><path class="cls-2" d="M218.81,65.62l9.18,49,9.1-49h5.8L232.33,122h-9.26L212.45,65.62Z"/><path class="cls-2" d="M254,65.62V122h-6.28V65.62Z"/><path class="cls-2" d="M273.63,65.62c8.77,0,12.8,5.31,12.8,14V108c0,8.61-4,13.93-12.8,13.93h-13.2V65.62Zm-.08,50.63c4.51,0,6.68-2.82,6.68-8v-29c0-5.15-2.17-8-6.76-8h-6.76v44.92Z"/><path class="cls-2" d="M298.58,110.62,296.41,122h-5.79L301.4,65.62h9.1L321.29,122H315l-2.17-11.35Zm.81-5.39h12.56l-6.36-32.52Z"/><path class="cls-2" d="M339.4,65.62c8.78,0,12.8,5.31,12.8,14V108c0,8.61-4,13.93-12.8,13.93H326.2V65.62Zm-.08,50.63c4.51,0,6.68-2.82,6.68-8v-29c0-5.15-2.17-8-6.76-8h-6.76v44.92Z"/><path class="cls-2" d="M17.27,24.06v5.13H5.64v21.9H0V.51H20.09V5.64H5.64V24.06Z"/><path class="cls-2" d="M29.92,39.16c0,4.55,1.81,7.3,5.93,7.3s5.85-2.75,5.85-7.3V.51H47V38.87c0,7.66-3.54,12.79-11.35,12.79S24.35,46.53,24.35,38.87V.51h5.56Z"/><path class="cls-2" d="M57.52,51.09H52.46V.51h7.15L71.32,37.07V.51h5V51.09H70.45L57.52,10.19Z"/><path class="cls-2" d="M93.94.51c7.88,0,11.49,4.77,11.49,12.57V38.59c0,7.73-3.61,12.5-11.49,12.5H82.09V.51ZM93.87,46c4,0,6-2.53,6-7.15v-26c0-4.62-2-7.15-6.07-7.15H87.72V46Z"/><path class="cls-2" d="M116.34,40.9l-2,10.19h-5.2L118.87.51H127l9.68,50.58h-5.64l-2-10.19Zm.72-4.84h11.27L122.63,6.86Z"/><path class="cls-2" d="M159.77,51h-5.42L146,10.77V51.09h-4.91V.51h7.88l8.31,40.39,8-40.39h7.88V51.09h-5.35V10.41Z"/><path class="cls-2" d="M196.91,22.91V28H184.56V46h15.17v5.13H178.92V.51h20.81V5.64H184.56V22.91Z"/><path class="cls-2" d="M209.92,51.09h-5.06V.51H212l11.71,36.56V.51h5V51.09h-5.85l-12.93-40.9Z"/><path class="cls-2" d="M241.86,51.09V5.64h-9.32V.51h24.28V5.64h-9.32V51.09Z"/><path class="cls-2" d="M260.28,12.72C260.28,5,264.11,0,271.84,0s11.63,5,11.63,12.72V38.87c0,7.66-3.83,12.72-11.63,12.72s-11.56-5.06-11.56-12.72Zm5.56,26.45c0,4.62,2,7.3,6,7.3s6-2.67,6-7.3V12.43c0-4.55-1.88-7.3-6-7.3s-6,2.75-6,7.3Z"/><path class="cls-2" d="M310.72,12.64V14h-5.35V12.36c0-4.55-1.73-7.23-5.78-7.23s-5.78,2.67-5.78,7.15c0,11.35,17,12.43,17,26.66,0,7.66-3.68,12.65-11.42,12.65S288,46.61,288,38.95V36.06h5.27v3.18c0,4.55,1.88,7.23,5.92,7.23s5.93-2.67,5.93-7.23c0-11.27-16.91-12.36-16.91-26.59,0-7.8,3.61-12.64,11.2-12.64S310.72,5,310.72,12.64Z"/><path class="cls-2" d="M335.87,32.95,325.17.51H331l7.88,24.86L346.85.51h5.35L341.43,32.95V51.09h-5.56Z"/></g></g></svg>